<svg width="22" height="20" viewBox="0 0 22 20" fill="none" xmlns="http://www.w3.org/2000/svg">
<path d="M16.5 0C14.55 0 12.45 0.456881 11 1.7133C9.55 0.456881 7.45 0 5.5 0C4.05 0 2.51 0.251285 1.22 0.90234C0.49 1.27927 0 2.09023 0 3.01541V15.8995C0 17.3843 1.22 18.4808 2.48 18.1153C3.46 17.8298 4.5 17.7041 5.5 17.7041C7.06 17.7041 8.72 18.0011 10.06 18.755C10.66 19.0976 11.34 19.0976 11.93 18.755C13.27 17.9897 14.93 17.7041 16.49 17.7041C17.49 17.7041 18.53 17.8298 19.51 18.1153C20.77 18.4923 21.99 17.3957 21.99 15.8995V3.01541C21.99 2.09023 21.5 1.27927 20.77 0.90234C19.49 0.251285 17.95 0 16.5 0ZM20 14.5402C20 15.2598 19.42 15.7852 18.8 15.6596C18.05 15.4997 17.27 15.4312 16.5 15.4312C14.8 15.4312 12.35 16.1736 11 17.1445V3.99771C12.35 3.02684 14.8 2.28441 16.5 2.28441C17.42 2.28441 18.33 2.3872 19.2 2.60422C19.66 2.71844 20 3.18675 20 3.72358V14.5402Z" fill="#70DA1C"/>
<path d="M12.98 7.43579C12.66 7.43579 12.37 7.20733 12.27 6.8418C12.14 6.39631 12.36 5.90513 12.75 5.76806C14.29 5.19692 16.28 5.01415 18.11 5.25403C18.52 5.31115 18.82 5.73379 18.77 6.20213C18.72 6.67046 18.35 7.01315 17.94 6.95603C16.32 6.739 14.55 6.91034 13.21 7.40152C13.13 7.41294 13.05 7.43579 12.98 7.43579Z" fill="#70DA1C"/>
<path d="M12.98 10.4738C12.66 10.4738 12.37 10.2453 12.27 9.87983C12.14 9.43439 12.36 8.94326 12.75 8.8062C14.28 8.23512 16.28 8.05237 18.11 8.29223C18.52 8.34934 18.82 8.77194 18.77 9.24022C18.72 9.70851 18.35 10.0512 17.94 9.99405C16.32 9.77704 14.55 9.94836 13.21 10.4395C13.13 10.4623 13.05 10.4738 12.98 10.4738Z" fill="#70DA1C"/>
<path d="M12.98 13.5121C12.66 13.5121 12.37 13.2837 12.27 12.9182C12.14 12.4728 12.36 11.9817 12.75 11.8446C14.28 11.2736 16.28 11.0908 18.11 11.3307C18.52 11.3878 18.82 11.8104 18.77 12.2786C18.72 12.7469 18.35 13.0781 17.94 13.0324C16.32 12.8154 14.55 12.9867 13.21 13.4778C13.13 13.5007 13.05 13.5121 12.98 13.5121Z" fill="#70DA1C"/>
</svg>
